<svg width="68" height="69" viewBox="0 0 68 69" fill="none" xmlns="http://www.w3.org/2000/svg">
<path d="M37.5 3.58337C37.5 1.65038 35.933 0.083374 34 0.083374C32.067 0.083374 30.5 1.65038 30.5 3.58337H37.5ZM30.5 65C30.5 66.933 32.067 68.5 34 68.5C35.933 68.5 37.5 66.933 37.5 65H30.5ZM3.50342 30.7917C1.57042 30.7917 0.00341797 32.3587 0.00341797 34.2917C0.00341797 36.2247 1.57042 37.7917 3.50342 37.7917V30.7917ZM64.4965 37.7917C66.4295 37.7917 67.9965 36.2247 67.9965 34.2917C67.9965 32.3587 66.4295 30.7917 64.4965 30.7917V37.7917ZM30.5 3.58337V65H37.5V3.58337H30.5ZM3.50342 37.7917H64.4965V30.7917H3.50342V37.7917Z" fill="url(#paint0_linear_143_214)"/>
<defs>
<linearGradient id="paint0_linear_143_214" x1="-2.77065e-05" y1="8.50003" x2="52" y2="51" gradientUnits="userSpaceOnUse">
<stop stop-color="#FC0707"/>
<stop offset="1" stop-color="#706DE8"/>
<stop offset="1" stop-color="#6D79E8"/>
</linearGradient>
</defs>
</svg>
