<svg width="148" height="27" viewBox="0 0 148 27" fill="none" xmlns="http://www.w3.org/2000/svg">
<path d="M18.9875 0L12.1926 13.2385V19.4037H6.79496V13.2385L0 0H6.13739L9.53487 7.48624L12.9323 0H18.9875Z" fill="black"/>
<path d="M18.9875 0L12.1926 13.2385V19.4037H6.79496V13.2385L0 0H6.13739L9.53487 7.48624L12.9323 0H18.9875Z" fill="#FC0707"/>
<path d="M19.7594 11.6697C19.7594 10.0734 20.0425 8.6789 20.6088 7.48624C21.1933 6.29358 21.9787 5.37615 22.9651 4.73394C23.9697 4.09174 25.084 3.77064 26.3078 3.77064C27.3672 3.77064 28.2805 3.98165 29.0477 4.40367C29.8149 4.82569 30.4085 5.3945 30.8286 6.11009V3.9633H36.1988V19.4037H30.8286V17.2569C30.4085 17.9725 29.8057 18.5413 29.0203 18.9633C28.2531 19.3853 27.349 19.5963 26.3078 19.5963C25.084 19.5963 23.9697 19.2752 22.9651 18.633C21.9787 17.9908 21.1933 17.0734 20.6088 15.8807C20.0425 14.6697 19.7594 13.2661 19.7594 11.6697ZM30.8286 11.6697C30.8286 10.6789 30.5546 9.89908 30.0067 9.33027C29.4769 8.76147 28.8194 8.47707 28.0339 8.47707C27.2302 8.47707 26.5635 8.76147 26.0338 9.33027C25.5041 9.88073 25.2392 10.6606 25.2392 11.6697C25.2392 12.6606 25.5041 13.4495 26.0338 14.0367C26.5635 14.6055 27.2302 14.8899 28.0339 14.8899C28.8194 14.8899 29.4769 14.6055 30.0067 14.0367C30.5546 13.4679 30.8286 12.6789 30.8286 11.6697Z" fill="black"/>
<path d="M19.7594 11.6697C19.7594 10.0734 20.0425 8.6789 20.6088 7.48624C21.1933 6.29358 21.9787 5.37615 22.9651 4.73394C23.9697 4.09174 25.084 3.77064 26.3078 3.77064C27.3672 3.77064 28.2805 3.98165 29.0477 4.40367C29.8149 4.82569 30.4085 5.3945 30.8286 6.11009V3.9633H36.1988V19.4037H30.8286V17.2569C30.4085 17.9725 29.8057 18.5413 29.0203 18.9633C28.2531 19.3853 27.349 19.5963 26.3078 19.5963C25.084 19.5963 23.9697 19.2752 22.9651 18.633C21.9787 17.9908 21.1933 17.0734 20.6088 15.8807C20.0425 14.6697 19.7594 13.2661 19.7594 11.6697ZM30.8286 11.6697C30.8286 10.6789 30.5546 9.89908 30.0067 9.33027C29.4769 8.76147 28.8194 8.47707 28.0339 8.47707C27.2302 8.47707 26.5635 8.76147 26.0338 9.33027C25.5041 9.88073 25.2392 10.6606 25.2392 11.6697C25.2392 12.6606 25.5041 13.4495 26.0338 14.0367C26.5635 14.6055 27.2302 14.8899 28.0339 14.8899C28.8194 14.8899 29.4769 14.6055 30.0067 14.0367C30.5546 13.4679 30.8286 12.6789 30.8286 11.6697Z" fill="#FC0707"/>
<path d="M49.3144 3.82569C51.0862 3.82569 52.4927 4.42202 53.5339 5.61468C54.575 6.78899 55.0956 8.38532 55.0956 10.4037V19.4037H49.7254V11.1193C49.7254 10.2385 49.4971 9.55046 49.0404 9.05505C48.5838 8.54128 47.9719 8.2844 47.2047 8.2844C46.401 8.2844 45.7708 8.54128 45.3142 9.05505C44.8575 9.55046 44.6292 10.2385 44.6292 11.1193V19.4037H39.259V3.9633H44.6292V6.16514C45.1041 5.46789 45.7434 4.90826 46.5471 4.48624C47.3508 4.04587 48.2733 3.82569 49.3144 3.82569Z" fill="black"/>
<path d="M49.3144 3.82569C51.0862 3.82569 52.4927 4.42202 53.5339 5.61468C54.575 6.78899 55.0956 8.38532 55.0956 10.4037V19.4037H49.7254V11.1193C49.7254 10.2385 49.4971 9.55046 49.0404 9.05505C48.5838 8.54128 47.9719 8.2844 47.2047 8.2844C46.401 8.2844 45.7708 8.54128 45.3142 9.05505C44.8575 9.55046 44.6292 10.2385 44.6292 11.1193V19.4037H39.259V3.9633H44.6292V6.16514C45.1041 5.46789 45.7434 4.90826 46.5471 4.48624C47.3508 4.04587 48.2733 3.82569 49.3144 3.82569Z" fill="#FC0707"/>
<path d="M63.7139 3.77064C64.7551 3.77064 65.6592 3.98165 66.4264 4.40367C67.2118 4.82569 67.8146 5.3945 68.2347 6.11009V3.9633H73.605V19.2385C73.605 20.6881 73.331 21.9908 72.783 23.1468C72.235 24.3211 71.3765 25.2569 70.2075 25.9541C69.0567 26.6514 67.5954 27 65.8236 27C63.449 27 61.5494 26.4404 60.1246 25.3211C58.6999 24.2018 57.887 22.6789 57.6861 20.7523H62.9741C63.0837 21.2477 63.3577 21.633 63.7961 21.9083C64.2345 22.1835 64.8007 22.3211 65.4948 22.3211C67.3214 22.3211 68.2347 21.2936 68.2347 19.2385V17.2569C67.8146 17.9725 67.2118 18.5413 66.4264 18.9633C65.6592 19.3853 64.7551 19.5963 63.7139 19.5963C62.4901 19.5963 61.3759 19.2752 60.3712 18.633C59.3849 17.9908 58.5994 17.0734 58.0149 15.8807C57.4487 14.6697 57.1655 13.2661 57.1655 11.6697C57.1655 10.0734 57.4487 8.6789 58.0149 7.48624C58.5994 6.29358 59.3849 5.37615 60.3712 4.73394C61.3759 4.09174 62.4901 3.77064 63.7139 3.77064ZM68.2347 11.6697C68.2347 10.6789 67.9608 9.89908 67.4128 9.33027C66.8831 8.76147 66.2255 8.47707 65.44 8.47707C64.6363 8.47707 63.9696 8.76147 63.4399 9.33027C62.9102 9.88073 62.6453 10.6606 62.6453 11.6697C62.6453 12.6606 62.9102 13.4495 63.4399 14.0367C63.9696 14.6055 64.6363 14.8899 65.44 14.8899C66.2255 14.8899 66.8831 14.6055 67.4128 14.0367C67.9608 13.4679 68.2347 12.6789 68.2347 11.6697Z" fill="black"/>
<path d="M63.7139 3.77064C64.7551 3.77064 65.6592 3.98165 66.4264 4.40367C67.2118 4.82569 67.8146 5.3945 68.2347 6.11009V3.9633H73.605V19.2385C73.605 20.6881 73.331 21.9908 72.783 23.1468C72.235 24.3211 71.3765 25.2569 70.2075 25.9541C69.0567 26.6514 67.5954 27 65.8236 27C63.449 27 61.5494 26.4404 60.1246 25.3211C58.6999 24.2018 57.887 22.6789 57.6861 20.7523H62.9741C63.0837 21.2477 63.3577 21.633 63.7961 21.9083C64.2345 22.1835 64.8007 22.3211 65.4948 22.3211C67.3214 22.3211 68.2347 21.2936 68.2347 19.2385V17.2569C67.8146 17.9725 67.2118 18.5413 66.4264 18.9633C65.6592 19.3853 64.7551 19.5963 63.7139 19.5963C62.4901 19.5963 61.3759 19.2752 60.3712 18.633C59.3849 17.9908 58.5994 17.0734 58.0149 15.8807C57.4487 14.6697 57.1655 13.2661 57.1655 11.6697C57.1655 10.0734 57.4487 8.6789 58.0149 7.48624C58.5994 6.29358 59.3849 5.37615 60.3712 4.73394C61.3759 4.09174 62.4901 3.77064 63.7139 3.77064ZM68.2347 11.6697C68.2347 10.6789 67.9608 9.89908 67.4128 9.33027C66.8831 8.76147 66.2255 8.47707 65.44 8.47707C64.6363 8.47707 63.9696 8.76147 63.4399 9.33027C62.9102 9.88073 62.6453 10.6606 62.6453 11.6697C62.6453 12.6606 62.9102 13.4495 63.4399 14.0367C63.9696 14.6055 64.6363 14.8899 65.44 14.8899C66.2255 14.8899 66.8831 14.6055 67.4128 14.0367C67.9608 13.4679 68.2347 12.6789 68.2347 11.6697Z" fill="#FC0707"/>
<path d="M89.7618 0V4.29358H82.0353V7.70642H87.7343V11.8073H82.0353V19.4037H76.6651V0H89.7618Z" fill="black"/>
<path d="M99.1747 19.5963C97.6403 19.5963 96.2613 19.2752 95.0374 18.633C93.8319 17.9908 92.882 17.0734 92.1879 15.8807C91.4938 14.6881 91.1468 13.2844 91.1468 11.6697C91.1468 10.0734 91.4938 8.6789 92.1879 7.48624C92.9003 6.29358 93.8593 5.37615 95.0648 4.73394C96.2887 4.09174 97.6677 3.77064 99.2021 3.77064C100.736 3.77064 102.106 4.09174 103.312 4.73394C104.536 5.37615 105.495 6.29358 106.189 7.48624C106.901 8.6789 107.257 10.0734 107.257 11.6697C107.257 13.2661 106.901 14.6697 106.189 15.8807C105.495 17.0734 104.536 17.9908 103.312 18.633C102.088 19.2752 100.709 19.5963 99.1747 19.5963ZM99.1747 14.9174C99.9236 14.9174 100.545 14.6422 101.038 14.0917C101.549 13.5229 101.805 12.7156 101.805 11.6697C101.805 10.6239 101.549 9.82569 101.038 9.27523C100.545 8.72477 99.9327 8.44954 99.2021 8.44954C98.4714 8.44954 97.8595 8.72477 97.3663 9.27523C96.8732 9.82569 96.6266 10.6239 96.6266 11.6697C96.6266 12.7339 96.864 13.5413 97.339 14.0917C97.8139 14.6422 98.4258 14.9174 99.1747 14.9174Z" fill="black"/>
<path d="M114.812 6.68807C115.415 5.80734 116.146 5.11009 117.004 4.59633C117.863 4.08257 118.785 3.82569 119.772 3.82569V9.57798H118.265C117.096 9.57798 116.228 9.80734 115.662 10.2661C115.096 10.7248 114.812 11.5229 114.812 12.6606V19.4037H109.442V3.9633H114.812V6.68807Z" fill="black"/>
<path d="M141.78 3.82569C143.717 3.82569 145.233 4.41284 146.329 5.58716C147.443 6.76147 148 8.36697 148 10.4037V19.4037H142.63V11.1193C142.63 10.2936 142.401 9.65138 141.945 9.19266C141.488 8.73394 140.867 8.50459 140.082 8.50459C139.296 8.50459 138.675 8.73394 138.219 9.19266C137.762 9.65138 137.534 10.2936 137.534 11.1193V19.4037H132.163V11.1193C132.163 10.2936 131.935 9.65138 131.478 9.19266C131.04 8.73394 130.428 8.50459 129.643 8.50459C128.839 8.50459 128.209 8.73394 127.752 9.19266C127.295 9.65138 127.067 10.2936 127.067 11.1193V19.4037H121.697V3.9633H127.067V6C127.542 5.33945 128.154 4.81651 128.903 4.43119C129.67 4.02752 130.547 3.82569 131.533 3.82569C132.666 3.82569 133.67 4.07339 134.547 4.56881C135.442 5.06422 136.145 5.76147 136.657 6.66055C137.205 5.81651 137.926 5.13762 138.821 4.62385C139.716 4.09174 140.703 3.82569 141.78 3.82569Z" fill="black"/>
</svg>
